<svg xmlns="http://www.w3.org/2000/svg" viewBox="0 0 512 512" width="512" height="512">
  <defs>
    <linearGradient id="bg" x1="0%" y1="0%" x2="100%" y2="100%">
      <stop offset="0%" style="stop-color:#2563EB"/>
      <stop offset="100%" style="stop-color:#3B82F6"/>
    </linearGradient>
  </defs>

  <!-- Background -->
  <rect width="512" height="512" rx="100" fill="url(#bg)"/>

  <!-- Letter B stylized -->
  <g fill="white">
    <!-- Main B shape -->
    <path d="M148 106h106c59 0 96 32 96 80 0 32-22 59-54 70 44 10 70 42 70 80 0 54-44 90-106 90H148V106z M201 234h48c27 0 44-16 44-40s-17-40-44-40h-48v80z M201 378h58c32 0 54-19 54-48s-22-48-54-48h-58v96z"/>

    <!-- Checkmark accent -->
    <path d="M372 160l32 32-80 80-38-38 32-32 6 6 48-48z" opacity="0.9"/>
  </g>
</svg>
