<svg xmlns="http://www.w3.org/2000/svg" viewBox="0 0 192 192" width="192" height="192">
  <defs>
    <linearGradient id="bg" x1="0%" y1="0%" x2="100%" y2="100%">
      <stop offset="0%" style="stop-color:#2563EB"/>
      <stop offset="100%" style="stop-color:#3B82F6"/>
    </linearGradient>
  </defs>

  <!-- Background -->
  <rect width="192" height="192" rx="40" fill="url(#bg)"/>

  <!-- Letter B stylized -->
  <g fill="white">
    <!-- Main B shape -->
    <path d="M56 40h40c22 0 36 12 36 30 0 12-8 22-20 26 16 4 26 16 26 30 0 20-16 34-40 34H56V40z M76 88h18c10 0 16-6 16-15s-6-15-16-15H76v30z M76 142h22c12 0 20-7 20-18s-8-18-20-18H76v36z"/>

    <!-- Checkmark accent -->
    <path d="M140 60l12 12-30 30-14-14 12-12 2 2 18-18z" opacity="0.9"/>
  </g>
</svg>
